<svg xmlns="http://www.w3.org/2000/svg" viewBox="0 0 63 18.74"><defs><style>.cls-1,.cls-2,.cls-4{fill:#ee761e;}.cls-1{fill-rule:evenodd;}.cls-3{fill:#f3f2f3;}.cls-4{font-size:12.31px;font-family:Arial-BoldMT, Arial;letter-spacing:-0.02em;}.cls-4,.cls-5{font-weight:700;}.cls-5{font-size:2px;fill:#ee721e;font-family:AvenirNextLTPro-Bold, Avenir Next LT Pro;}.cls-6{letter-spacing:-0.02em;}</style></defs><g id="Capa_2" data-name="Capa 2"><g id="Capa_1-2" data-name="Capa 1"><polygon class="cls-1" points="6.33 2.78 7.66 2.78 9.39 6 9.39 2.78 10.73 2.78 10.73 8.59 9.39 8.59 7.66 5.4 7.66 8.59 6.33 8.59 6.33 2.78"/><path class="cls-1" d="M1.08.36H5.15c.41.15.46,1.56,0,1.69H2.64c-.53,0-.62,1.31-.13,1.61h2a1.11,1.11,0,0,1,1.14.87v3A1.52,1.52,0,0,1,4.42,8.59H.48C-.07,8.33,0,7.07.47,6.9H3a.48.48,0,0,0,.47-.37V5.81c-.06-.34-.2-.57-.52-.57H1.3A1.47,1.47,0,0,1,0,3.89V1.38a1.56,1.56,0,0,1,1.08-1"/><polygon class="cls-1" points="16.58 2.78 20.39 2.78 20.39 4.02 18 4.02 18 4.95 20.21 4.95 20.21 6.13 18 6.13 18 7.28 20.45 7.28 20.45 8.59 16.58 8.59 16.58 2.78"/><polygon class="cls-1" points="11.13 2.78 16.11 2.78 16.11 4.01 14.36 4.01 14.34 8.59 12.92 8.59 12.9 4.01 11.13 4.01 11.13 2.78"/><polygon class="cls-1" points="16.83 1.23 16.83 0.85 22.27 0.85 22.27 10.47 16.42 10.47 15.33 9.54 14.28 10.47 10.19 10.47 10.19 10.12 14.28 10.12 15.33 9.15 16.42 10.12 21.93 10.12 21.93 1.23 16.83 1.23"/><path class="cls-1" d="M25.26.88l-.15.6h-.05a.6.6,0,0,0,0-.22.38.38,0,0,0-.15-.2A.33.33,0,0,0,24.67,1a.25.25,0,0,0-.19.08.23.23,0,0,0-.07.17.32.32,0,0,0,.05.19,1.41,1.41,0,0,0,.26.29,1,1,0,0,1,.21.26.48.48,0,0,1,.06.24.5.5,0,0,1-.08.26.51.51,0,0,1-.22.19.88.88,0,0,1-.33.07,1.11,1.11,0,0,1-.29,0l-.23,0h-.08a.35.35,0,0,0-.09.06h-.05l.16-.68h0a1.11,1.11,0,0,0,.07.3.53.53,0,0,0,.16.2.48.48,0,0,0,.24.07.31.31,0,0,0,.22-.09.26.26,0,0,0,.08-.2.32.32,0,0,0-.05-.19,1.61,1.61,0,0,0-.22-.27,1.06,1.06,0,0,1-.25-.31.5.5,0,0,1,0-.21A.44.44,0,0,1,24.19,1,.6.6,0,0,1,24.6.88a1.5,1.5,0,0,1,.31.05l.15,0,.07,0L25.2.88Zm.64,0A.24.24,0,0,1,26,.93a.24.24,0,0,1,.05.14.22.22,0,0,1-.05.14.2.2,0,0,1-.14.06.18.18,0,0,1-.14-.06.18.18,0,0,1-.06-.14.2.2,0,0,1,.06-.14A.22.22,0,0,1,25.9.88m.1.6-.29.93a.89.89,0,0,0,0,.11s0,0,0,0l0,0,.05,0a1.33,1.33,0,0,0,.14-.19l0,0q-.19.36-.42.36a.16.16,0,0,1-.14-.05.13.13,0,0,1-.05-.12.3.3,0,0,1,0-.12l.2-.63a.5.5,0,0,0,0-.14s0,0,0-.05l-.08,0h0l0-.05.46-.08Zm.87,0-.17.57c.12-.17.21-.28.26-.34a.81.81,0,0,1,.23-.18.37.37,0,0,1,.17-.05.14.14,0,0,1,.12.06.2.2,0,0,1,.06.15.79.79,0,0,1,0,.17l-.18.55a.84.84,0,0,0,0,.1s0,0,0,0h.05a.45.45,0,0,0,.09-.1l0-.06.05,0c-.13.22-.27.32-.41.32a.17.17,0,0,1-.13,0A.14.14,0,0,1,27,2.57a.69.69,0,0,1,0-.16l.18-.56a.18.18,0,0,0,0-.09s0,0,0,0h0A.19.19,0,0,0,27,1.8a1.84,1.84,0,0,0-.39.51l-.11.4h-.34l.25-.85a.54.54,0,0,0,0-.18,0,0,0,0,0,0,0l0,0h-.1V1.56l.47-.08Zm2.37-.6-.45,1.47a.69.69,0,0,0,0,.17s0,0,0,0h0a.06.06,0,0,0,0,0A.63.63,0,0,0,29,2.39l.05,0c-.13.21-.27.32-.42.32a.16.16,0,0,1-.12,0,.14.14,0,0,1,0-.11.67.67,0,0,1,0-.17l0-.14a1.3,1.3,0,0,1-.28.39.32.32,0,0,1-.18.07.21.21,0,0,1-.17-.08.32.32,0,0,1-.07-.23A.92.92,0,0,1,27.88,2a1.25,1.25,0,0,1,.2-.32,1.09,1.09,0,0,1,.22-.18.42.42,0,0,1,.21-.06l.09,0a.22.22,0,0,1,.09.08l.11-.33a1,1,0,0,0,0-.18.05.05,0,0,0,0-.05.09.09,0,0,0-.07,0h0V1l.45-.08Zm-.6.83a.16.16,0,0,0,0-.11.09.09,0,0,0-.08,0,.12.12,0,0,0-.09,0,1.07,1.07,0,0,0-.2.34,1.18,1.18,0,0,0-.11.43.12.12,0,0,0,0,.09.05.05,0,0,0,.05,0,.12.12,0,0,0,.09,0,1.1,1.1,0,0,0,.23-.34,1.15,1.15,0,0,0,.11-.4M29.8.88a.22.22,0,0,1,.14.05.2.2,0,0,1,.06.14.18.18,0,0,1-.06.14.18.18,0,0,1-.14.06.16.16,0,0,1-.13-.06.18.18,0,0,1-.06-.14.24.24,0,0,1,.05-.14A.24.24,0,0,1,29.8.88m.11.6-.29.93a.36.36,0,0,0,0,.11v0l0,0,0,0a.84.84,0,0,0,.14-.19l.05,0c-.13.24-.28.36-.43.36a.17.17,0,0,1-.14-.05.17.17,0,0,1-.05-.12.35.35,0,0,1,0-.12l.2-.63a.5.5,0,0,0,0-.14s0,0,0-.05l-.07,0h0V1.56l.47-.08Zm1.15.91,0,0a1,1,0,0,1-.26.22.69.69,0,0,1-.34.09.46.46,0,0,1-.21-.05.32.32,0,0,1-.14-.14.43.43,0,0,1,0-.19.84.84,0,0,1,.12-.42.82.82,0,0,1,.31-.33.72.72,0,0,1,.38-.13.34.34,0,0,1,.22.07.21.21,0,0,1,.08.16.2.2,0,0,1-.06.15.18.18,0,0,1-.13.06.13.13,0,0,1-.1,0,.1.1,0,0,1,0-.09A.15.15,0,0,1,31,1.67s.05,0,.05-.07a0,0,0,0,0,0,0l-.07,0a.32.32,0,0,0-.21.09.77.77,0,0,0-.19.3,1,1,0,0,0-.07.35.3.3,0,0,0,.07.21.2.2,0,0,0,.16.07.46.46,0,0,0,.19,0,.72.72,0,0,0,.19-.13m1.58-.89-.26.88,0,.1v0a0,0,0,0,0,0,0h0a.12.12,0,0,0,.08,0l.09-.12.05,0a.66.66,0,0,1-.2.25.4.4,0,0,1-.23.08.12.12,0,0,1-.11,0,.11.11,0,0,1,0-.09.63.63,0,0,1,0-.19l0-.11a1.35,1.35,0,0,1-.29.37.32.32,0,0,1-.18.06.17.17,0,0,1-.17-.1.4.4,0,0,1-.06-.22A1,1,0,0,1,31.51,2a.88.88,0,0,1,.3-.38.47.47,0,0,1,.28-.13.17.17,0,0,1,.12.05.26.26,0,0,1,.07.15l0-.16Zm-.42.25a.21.21,0,0,0,0-.15.06.06,0,0,0-.06,0,.12.12,0,0,0-.09,0,.91.91,0,0,0-.19.33,1.1,1.1,0,0,0-.1.43.15.15,0,0,0,0,.1.05.05,0,0,0,0,0,.15.15,0,0,0,.12-.07.91.91,0,0,0,.16-.24,1,1,0,0,0,.13-.44m1.37-.59-.11.36h.15l0,.15h-.16l-.24.78a.52.52,0,0,0,0,.11v0h0l0,0a1.31,1.31,0,0,0,.14-.16l0,0a.65.65,0,0,1-.2.23.35.35,0,0,1-.21.07.2.2,0,0,1-.14,0,.13.13,0,0,1,0-.12.81.81,0,0,1,0-.19l.23-.72h-.17l0-.09a1.46,1.46,0,0,0,.28-.15,1.35,1.35,0,0,0,.29-.27Zm.94.32a.46.46,0,0,1,.2.05.38.38,0,0,1,.14.14.38.38,0,0,1,0,.19.84.84,0,0,1-.12.42.93.93,0,0,1-.31.34.77.77,0,0,1-.4.12.34.34,0,0,1-.28-.11.38.38,0,0,1-.1-.26A.81.81,0,0,1,33.78,2,1.12,1.12,0,0,1,34,1.75a1.15,1.15,0,0,1,.26-.19.68.68,0,0,1,.31-.08m-.06.07a.16.16,0,0,0-.11.05,1.09,1.09,0,0,0-.21.38,1.57,1.57,0,0,0-.12.55.12.12,0,0,0,0,.1.1.1,0,0,0,.09,0,.16.16,0,0,0,.09,0,.73.73,0,0,0,.14-.21,1.78,1.78,0,0,0,.14-.37,1.2,1.2,0,0,0,0-.36.18.18,0,0,0,0-.11.12.12,0,0,0-.08,0M24.63,3.43l.56,1.2.25-.87a.32.32,0,0,0,0-.13.12.12,0,0,0,0-.1.23.23,0,0,0-.14,0v0h.57v0a.38.38,0,0,0-.18.06.41.41,0,0,0-.12.22l-.43,1.48h-.05l-.72-1.52L24,4.91A.23.23,0,0,0,24,5a.12.12,0,0,0,.05.11.21.21,0,0,0,.15,0l0,0h-.58v0l.11,0a.33.33,0,0,0,.11-.08.54.54,0,0,0,.08-.17l.38-1.3-.11-.11-.14,0v0ZM27,4l-.32,0,0,.16A.34.34,0,0,0,26.61,4a.21.21,0,0,0-.12,0,.48.48,0,0,0-.29.12,1.19,1.19,0,0,0-.3.39.94.94,0,0,0-.11.42.43.43,0,0,0,.05.23.21.21,0,0,0,.18.1.23.23,0,0,0,.17-.07,1.22,1.22,0,0,0,.3-.37l0,.11a.88.88,0,0,0-.05.19.13.13,0,0,0,0,.1.21.21,0,0,0,.12,0,.37.37,0,0,0,.22-.08.65.65,0,0,0,.2-.25l0,0a.48.48,0,0,1-.1.12s-.05,0-.07,0,0,0,0,0a0,0,0,0,1,0,0V5l0-.11Zm-.43.25a.91.91,0,0,1-.13.44,1.4,1.4,0,0,1-.15.24.17.17,0,0,1-.12.06l-.06,0a.22.22,0,0,1,0-.1,1.14,1.14,0,0,1,.1-.43,1.12,1.12,0,0,1,.2-.33.2.2,0,0,1,.08,0,.1.1,0,0,1,.07,0,.28.28,0,0,1,0,.15m1.59.64,0,0a.82.82,0,0,1-.25.22.63.63,0,0,1-.34.1.54.54,0,0,1-.22,0,.32.32,0,0,1-.13-.15.41.41,0,0,1-.05-.18.85.85,0,0,1,.12-.43.9.9,0,0,1,.31-.33A.73.73,0,0,1,28.06,4a.32.32,0,0,1,.23.07.19.19,0,0,1,.08.16.2.2,0,0,1-.06.15.18.18,0,0,1-.13.06.13.13,0,0,1-.1,0,.12.12,0,0,1,0-.09.16.16,0,0,1,.07-.13s.05,0,.05-.06a.05.05,0,0,0,0,0l-.07,0a.32.32,0,0,0-.21.09.79.79,0,0,0-.2.3,1.15,1.15,0,0,0-.07.35.32.32,0,0,0,.07.2.25.25,0,0,0,.17.08A.72.72,0,0,0,28,5a1,1,0,0,0,.18-.13m.9-1.52a.2.2,0,0,1,.14.06.17.17,0,0,1,.05.14.19.19,0,0,1-.05.14.22.22,0,0,1-.28,0,.2.2,0,0,1-.06-.14.21.21,0,0,1,.2-.2m.11.61-.3.93c0,.05,0,.09,0,.1a0,0,0,0,0,0,0h0a0,0,0,0,0,0,0,.59.59,0,0,0,.14-.18l.05,0c-.14.24-.28.36-.43.36a.2.2,0,0,1-.14,0,.17.17,0,0,1-.05-.12.74.74,0,0,1,0-.12l.21-.63a1.15,1.15,0,0,0,0-.14s0,0,0,0,0,0-.08,0h-.05l0-.06L29.12,4Zm1,0a.46.46,0,0,1,.2,0,.35.35,0,0,1,.14.13.41.41,0,0,1,.05.19.88.88,0,0,1-.12.43.92.92,0,0,1-.32.33.67.67,0,0,1-.39.13.36.36,0,0,1-.28-.11.35.35,0,0,1-.1-.26.77.77,0,0,1,.07-.34.92.92,0,0,1,.19-.28.83.83,0,0,1,.26-.19.67.67,0,0,1,.3-.08m0,.07a.16.16,0,0,0-.12,0,1.28,1.28,0,0,0-.21.39,1.68,1.68,0,0,0-.11.55.17.17,0,0,0,0,.1.18.18,0,0,0,.09,0,.12.12,0,0,0,.09,0,1,1,0,0,0,.15-.22,1.91,1.91,0,0,0,.13-.36,1.24,1.24,0,0,0,.06-.37.15.15,0,0,0,0-.1.1.1,0,0,0-.08,0M31.53,4l-.17.57a2.16,2.16,0,0,1,.26-.34.79.79,0,0,1,.22-.18A.41.41,0,0,1,32,4a.18.18,0,0,1,.13.06.2.2,0,0,1,0,.14.67.67,0,0,1,0,.18L32,4.93A.33.33,0,0,0,32,5v0h0a.53.53,0,0,0,.09-.11l0-.05,0,0c-.13.21-.26.32-.41.32a.25.25,0,0,1-.13,0,.16.16,0,0,1,0-.11.73.73,0,0,1,0-.16l.18-.57a.31.31,0,0,0,0-.08s0,0,0,0h0a.28.28,0,0,0-.13.07,1.89,1.89,0,0,0-.38.52l-.12.39h-.34l.25-.84a1.32,1.32,0,0,0,.05-.18l0,0,0,0H31v0L31.44,4Zm2.16,0-.26.87,0,.11a0,0,0,0,0,0,0v0h0a.13.13,0,0,0,.07,0,.48.48,0,0,0,.1-.12l0,0a.76.76,0,0,1-.2.25.38.38,0,0,1-.23.08.18.18,0,0,1-.11,0,.13.13,0,0,1,0-.1.7.7,0,0,1,0-.19l0-.11a1.21,1.21,0,0,1-.29.37.26.26,0,0,1-.18.07.18.18,0,0,1-.17-.1.44.44,0,0,1-.06-.23,1,1,0,0,1,.12-.42,1,1,0,0,1,.3-.39A.48.48,0,0,1,33.15,4a.21.21,0,0,1,.12,0,.27.27,0,0,1,.06.16L33.38,4Zm-.42.25a.28.28,0,0,0,0-.15.1.1,0,0,0-.07,0,.18.18,0,0,0-.09,0,1.44,1.44,0,0,0-.19.33,1.14,1.14,0,0,0-.1.43.22.22,0,0,0,0,.1s0,0,0,0A.17.17,0,0,0,33,5a1,1,0,0,0,.16-.24.91.91,0,0,0,.13-.44m1.45-.88-.46,1.5c0,.08,0,.14,0,.16l0,0h0l.05,0a.79.79,0,0,0,.14-.16l0,0a.83.83,0,0,1-.25.27.28.28,0,0,1-.18.06.22.22,0,0,1-.14,0,.16.16,0,0,1,0-.11.8.8,0,0,1,0-.16l.37-1.21a.4.4,0,0,0,0-.13,0,0,0,0,0,0-.05.23.23,0,0,0-.13,0v0l.47-.08Zm2.15,0-.45,1.48a.66.66,0,0,0,0,.16,0,0,0,0,0,0,0h0l.05,0a.6.6,0,0,0,.12-.14l.05,0c-.13.22-.26.33-.41.33a.22.22,0,0,1-.13,0,.21.21,0,0,1,0-.11.45.45,0,0,1,0-.17l0-.14a1.61,1.61,0,0,1-.29.39.34.34,0,0,1-.18.07.23.23,0,0,1-.17-.08.4.4,0,0,1-.07-.24.85.85,0,0,1,.09-.38,1.36,1.36,0,0,1,.2-.32.69.69,0,0,1,.23-.18.39.39,0,0,1,.2-.06l.09,0,.1.08.1-.32a.65.65,0,0,0,0-.18.09.09,0,0,0,0-.06l-.07,0h0v0l.46-.08Zm-.6.84a.21.21,0,0,0,0-.12.11.11,0,0,0-.07,0,.16.16,0,0,0-.1,0,1.07,1.07,0,0,0-.2.34,1.14,1.14,0,0,0-.1.43s0,.07,0,.09,0,0,.05,0a.16.16,0,0,0,.1,0,1.06,1.06,0,0,0,.22-.35.89.89,0,0,0,.11-.39m1,.5a.71.71,0,0,0,0,.14.23.23,0,0,0,.06.16.25.25,0,0,0,.15.06.65.65,0,0,0,.19,0l.22-.14,0,0a1,1,0,0,1-.3.24.69.69,0,0,1-.32.08A.39.39,0,0,1,37,5.15a.41.41,0,0,1-.08-.24A.77.77,0,0,1,37,4.48a1,1,0,0,1,.34-.35A.83.83,0,0,1,37.79,4a.29.29,0,0,1,.17,0,.22.22,0,0,1,0,.14.31.31,0,0,1,0,.18.55.55,0,0,1-.2.2.89.89,0,0,1-.26.12l-.26,0m0-.07a.74.74,0,0,0,.19,0,.47.47,0,0,0,.12-.09.71.71,0,0,0,.11-.17.41.41,0,0,0,0-.18.07.07,0,0,0,0-.06l0,0a.21.21,0,0,0-.14.09,1.19,1.19,0,0,0-.25.48M24.11,6h1.45l-.14.48h-.05a.17.17,0,0,0,0-.07.26.26,0,0,0-.09-.21A.46.46,0,0,0,25,6.06l-.39,1.35a.75.75,0,0,0,0,.17.09.09,0,0,0,0,.08.3.3,0,0,0,.16,0v0h-.89l0,0a.28.28,0,0,0,.2-.05.44.44,0,0,0,.11-.23l.39-1.35a.85.85,0,0,0-.34.09.87.87,0,0,0-.25.28H24ZM26,6.52h-.09l-.44.09v0h.11l.05,0a.11.11,0,0,1,0,.06s0,.06,0,.13l-.25.87h.32c.05-.19.09-.31.11-.38l.11-.24A1,1,0,0,1,26,6.91a.23.23,0,0,1,.08-.07h.05a.14.14,0,0,1,0,0,.1.1,0,0,0,.08.05.14.14,0,0,0,.09-.05.38.38,0,0,0,.06-.22.16.16,0,0,0,0-.11.12.12,0,0,0-.09,0,.21.21,0,0,0-.15.07,2.88,2.88,0,0,0-.36.67Z"/><path class="cls-1" d="M27.79,6.54l-.26.87,0,.11s0,0,0,0l0,0a0,0,0,0,0,0,0s0,0,.07,0a.48.48,0,0,0,.1-.12l0,0a.88.88,0,0,1-.2.25.37.37,0,0,1-.23.07.18.18,0,0,1-.11,0,.13.13,0,0,1,0-.1,1.3,1.3,0,0,1,0-.19l0-.11a1.22,1.22,0,0,1-.3.37.27.27,0,0,1-.17.06.18.18,0,0,1-.18-.1.4.4,0,0,1-.06-.22A1,1,0,0,1,26.65,7a1.15,1.15,0,0,1,.3-.38.48.48,0,0,1,.29-.12.16.16,0,0,1,.12,0,.27.27,0,0,1,.06.16l0-.16Zm-.43.25a.35.35,0,0,0,0-.16.09.09,0,0,0-.07,0,.1.1,0,0,0-.08,0A.9.9,0,0,0,27,7a1.14,1.14,0,0,0-.1.43.22.22,0,0,0,0,.1l.05,0a.19.19,0,0,0,.13-.07,1,1,0,0,0,.15-.23.94.94,0,0,0,.13-.44m1.47-.88-.24.79a1,1,0,0,1,.17-.15.32.32,0,0,1,.14,0,.27.27,0,0,1,.23.11.46.46,0,0,1,.07.26.92.92,0,0,1-.25.64.68.68,0,0,1-.51.24A1,1,0,0,1,28,7.65l.4-1.39,0-.14a.05.05,0,0,0,0,0,.21.21,0,0,0-.12,0V6l.46-.08Zm-.52,1.75a.17.17,0,0,0,.11,0,.2.2,0,0,0,.11,0,.47.47,0,0,0,.15-.16,1,1,0,0,0,.13-.29,1,1,0,0,0,.06-.33.26.26,0,0,0,0-.14.14.14,0,0,0-.1,0,.19.19,0,0,0-.15.1.73.73,0,0,0-.09.25Zm2.38-1.12-.26.87,0,.11v0s0,0,0,0l0,0a.15.15,0,0,0,.08,0l.09-.12,0,0a1.09,1.09,0,0,1-.2.25.39.39,0,0,1-.23.07.21.21,0,0,1-.12,0,.18.18,0,0,1,0-.1.76.76,0,0,1,.05-.19l0-.11a1.09,1.09,0,0,1-.3.37.27.27,0,0,1-.17.06.19.19,0,0,1-.18-.1.51.51,0,0,1,0-.22A1.13,1.13,0,0,1,29.55,7a1.15,1.15,0,0,1,.3-.38.5.5,0,0,1,.29-.12.16.16,0,0,1,.12,0,.34.34,0,0,1,.07.16l.05-.16Zm-.43.25a.35.35,0,0,0,0-.16.07.07,0,0,0-.06,0,.12.12,0,0,0-.09,0,.91.91,0,0,0-.19.33,1.18,1.18,0,0,0-.11.43.13.13,0,0,0,0,.1.05.05,0,0,0,.05,0A.15.15,0,0,0,30,7.46a1.08,1.08,0,0,0,.28-.67m1.17-.88a.21.21,0,0,1,.2.2.18.18,0,0,1-.06.13.18.18,0,0,1-.14.06.16.16,0,0,1-.13-.06.18.18,0,0,1-.06-.13A.18.18,0,0,1,31.3,6a.16.16,0,0,1,.13-.06m.13.61h-.08L31,6.59l0,0h0l.08,0s0,0,0,.06,0,.06,0,.13l-.3,1a1.82,1.82,0,0,1-.08.34.1.1,0,0,1-.09.06h0l0,0a.11.11,0,0,0,0-.07.09.09,0,0,0,0-.07.11.11,0,0,0-.08,0,.14.14,0,0,0-.11,0,.12.12,0,0,0,0,.2.25.25,0,0,0,.16,0,.47.47,0,0,0,.25-.07.46.46,0,0,0,.19-.2,2.46,2.46,0,0,0,.2-.5Zm1.43,0-.26.87,0,.11v0s0,0,0,0l0,0a.15.15,0,0,0,.08,0l.09-.12.05,0a.88.88,0,0,1-.2.25.39.39,0,0,1-.23.07.16.16,0,0,1-.11,0,.13.13,0,0,1,0-.1.63.63,0,0,1,0-.19l0-.11a1.21,1.21,0,0,1-.29.37.32.32,0,0,1-.18.06.19.19,0,0,1-.18-.1.51.51,0,0,1-.05-.22A1.13,1.13,0,0,1,31.85,7a1.06,1.06,0,0,1,.31-.38.45.45,0,0,1,.28-.12.16.16,0,0,1,.12,0,.27.27,0,0,1,.07.16l0-.16Zm-.42.25a.25.25,0,0,0,0-.16.07.07,0,0,0-.06,0,.12.12,0,0,0-.09,0,.91.91,0,0,0-.19.33,1.18,1.18,0,0,0-.11.43.13.13,0,0,0,0,.1.05.05,0,0,0,0,0,.15.15,0,0,0,.12-.07,1,1,0,0,0,.16-.23,1.07,1.07,0,0,0,.13-.44m2.07-.88-.45,1.47a.81.81,0,0,0,0,.17s0,0,0,0l0,0s0,0,0,0a.63.63,0,0,0,.12-.14l0,0c-.13.22-.26.32-.41.32a.17.17,0,0,1-.13,0,.13.13,0,0,1,0-.1.82.82,0,0,1,0-.18l0-.13a1.35,1.35,0,0,1-.29.38.27.27,0,0,1-.18.07.2.2,0,0,1-.17-.08.37.37,0,0,1-.07-.23.92.92,0,0,1,.09-.39,2,2,0,0,1,.2-.32,1.46,1.46,0,0,1,.22-.18.54.54,0,0,1,.21-.05s.07,0,.09,0a.31.31,0,0,1,.1.08l.1-.33a.54.54,0,0,0,0-.18.05.05,0,0,0,0-.05s0,0-.07,0h0V6l.46-.08Zm-.6.84a.17.17,0,0,0,0-.12.09.09,0,0,0-.08,0,.16.16,0,0,0-.09,0,1,1,0,0,0-.2.33,1.18,1.18,0,0,0-.1.43.15.15,0,0,0,0,.1s0,0,0,0a.19.19,0,0,0,.1,0,1,1,0,0,0,.22-.34A.89.89,0,0,0,34,6.75m1.44-.23a.35.35,0,0,1,.2.05.29.29,0,0,1,.14.13.41.41,0,0,1,0,.19.84.84,0,0,1-.12.42.85.85,0,0,1-.31.34.75.75,0,0,1-.4.12.37.37,0,0,1-.28-.1.39.39,0,0,1-.09-.26.81.81,0,0,1,.07-.35.88.88,0,0,1,.19-.27.86.86,0,0,1,.26-.2.63.63,0,0,1,.3-.07m0,.07a.16.16,0,0,0-.12,0A1.06,1.06,0,0,0,35.1,7a1.47,1.47,0,0,0-.12.54.15.15,0,0,0,0,.1.11.11,0,0,0,.09,0,.16.16,0,0,0,.09,0,.57.57,0,0,0,.14-.21,1.42,1.42,0,0,0,.14-.36,1.35,1.35,0,0,0,.06-.37.14.14,0,0,0,0-.11.09.09,0,0,0-.07,0m1.31-.07-.24.74a2.88,2.88,0,0,1,.36-.67A.21.21,0,0,1,37,6.52a.1.1,0,0,1,.09,0,.16.16,0,0,1,0,.11.38.38,0,0,1-.06.22.11.11,0,0,1-.09.05.08.08,0,0,1-.07-.05s0,0,0,0h0a.22.22,0,0,0-.07.07,1.52,1.52,0,0,0-.12.21c0,.09-.08.18-.1.24a3,3,0,0,0-.12.38h-.32l.25-.87a.43.43,0,0,0,0-.13.11.11,0,0,0,0-.06l0,0h-.12v0l.45-.09Zm.87.72c0,.06,0,.11,0,.14a.21.21,0,0,0,.22.22.39.39,0,0,0,.18,0,.72.72,0,0,0,.22-.14l0,0a1.05,1.05,0,0,1-.3.24.66.66,0,0,1-.32.07.33.33,0,0,1-.39-.35,1,1,0,0,1,.47-.77.83.83,0,0,1,.44-.13.22.22,0,0,1,.17.05.16.16,0,0,1,.06.13.33.33,0,0,1-.06.19.73.73,0,0,1-.19.2.85.85,0,0,1-.26.11l-.27,0m0-.06.18,0a.5.5,0,0,0,.13-.1.64.64,0,0,0,.15-.35.08.08,0,0,0,0,0s0,0-.06,0a.23.23,0,0,0-.14.08,1.18,1.18,0,0,0-.24.49m1.87-.66-.06.4h0a.37.37,0,0,0-.09-.24.26.26,0,0,0-.19-.09.17.17,0,0,0-.1,0,.12.12,0,0,0,0,.09.24.24,0,0,0,0,.08.37.37,0,0,0,.07.1,2.75,2.75,0,0,1,.26.3.39.39,0,0,1,0,.18.35.35,0,0,1,0,.2.39.39,0,0,1-.16.15.42.42,0,0,1-.22,0l-.19,0a.26.26,0,0,0-.11,0h-.05s0,0,0,0h0l.07-.43h0a1.1,1.1,0,0,0,.09.23.29.29,0,0,0,.23.14.15.15,0,0,0,.17-.15.27.27,0,0,0,0-.12,1.12,1.12,0,0,0-.14-.18A1.56,1.56,0,0,1,38.71,7a.33.33,0,0,1,0-.15.33.33,0,0,1,.1-.24.44.44,0,0,1,.29-.09l.2,0h.1a.09.09,0,0,0,.08,0Zm2.32-.61-.44,1.47a1.47,1.47,0,0,0-.05.17v0l0,0a.09.09,0,0,0,.06,0,.63.63,0,0,0,.12-.14l0,0c-.12.22-.26.32-.41.32a.16.16,0,0,1-.12,0,.14.14,0,0,1,0-.1,1,1,0,0,1,0-.18l0-.13a1.35,1.35,0,0,1-.29.38.27.27,0,0,1-.18.07.18.18,0,0,1-.16-.08.32.32,0,0,1-.07-.23,1.09,1.09,0,0,1,.08-.39,1.48,1.48,0,0,1,.21-.32,1.09,1.09,0,0,1,.22-.18.54.54,0,0,1,.21-.05.15.15,0,0,1,.09,0,.22.22,0,0,1,.09.08l.1-.33a.54.54,0,0,0,0-.18.08.08,0,0,0,0-.05.08.08,0,0,0-.07,0h-.06V6l.46-.08Zm-.59.84c0-.06,0-.1,0-.12a.08.08,0,0,0-.07,0,.14.14,0,0,0-.09,0,.85.85,0,0,0-.2.33,1.23,1.23,0,0,0-.11.43.25.25,0,0,0,0,.1.09.09,0,0,0,.06,0,.14.14,0,0,0,.09,0,1,1,0,0,0,.23-.34,1.06,1.06,0,0,0,.11-.39m1,.49a1.15,1.15,0,0,0,0,.14.21.21,0,0,0,.22.22.39.39,0,0,0,.18,0,.62.62,0,0,0,.22-.14l0,0a1.05,1.05,0,0,1-.3.24.66.66,0,0,1-.32.07.38.38,0,0,1-.3-.1.37.37,0,0,1-.09-.25,1,1,0,0,1,.47-.77.85.85,0,0,1,.44-.13.22.22,0,0,1,.17.05A.16.16,0,0,1,43,6.7a.33.33,0,0,1-.06.19.61.61,0,0,1-.19.2.85.85,0,0,1-.26.11l-.26,0m0-.06.18,0a.38.38,0,0,0,.13-.1.64.64,0,0,0,.15-.35.08.08,0,0,0,0,0,.06.06,0,0,0,0,0c-.05,0-.09,0-.15.08a1.18,1.18,0,0,0-.24.49m2.42-1.27L44.17,7.4c0,.09,0,.15,0,.17l0,0h0l0,0a.66.66,0,0,0,.14-.17l0,0a1.11,1.11,0,0,1-.25.27.27.27,0,0,1-.18,0,.23.23,0,0,1-.14,0,.16.16,0,0,1-.05-.11.41.41,0,0,1,0-.16l.37-1.21a.7.7,0,0,0,0-.14.05.05,0,0,0,0-.05l-.13,0,0,0,.46-.08Zm1.28.63-.26.87,0,.11v0s0,0,0,0l0,0s0,0,.07,0a.48.48,0,0,0,.1-.12l0,0a.74.74,0,0,1-.2.25.36.36,0,0,1-.22.07.21.21,0,0,1-.12,0,.13.13,0,0,1,0-.1.76.76,0,0,1,0-.19l0-.11a1.22,1.22,0,0,1-.3.37.27.27,0,0,1-.17.06.19.19,0,0,1-.18-.1.4.4,0,0,1-.05-.22A1,1,0,0,1,44.77,7a1.15,1.15,0,0,1,.3-.38.48.48,0,0,1,.29-.12.16.16,0,0,1,.12,0,.34.34,0,0,1,.07.16l0-.16Zm-.43.25a.35.35,0,0,0,0-.16.09.09,0,0,0-.07,0,.1.1,0,0,0-.08,0,.9.9,0,0,0-.2.33,1.14,1.14,0,0,0-.1.43.22.22,0,0,0,0,.1l0,0s.08,0,.13-.07a1,1,0,0,0,.15-.23.94.94,0,0,0,.13-.44M24.7,8.57l-.2.69h.06a.76.76,0,0,0,.35-.06A.45.45,0,0,0,25.1,9h0l-.2.7H24.9a.57.57,0,0,0,0-.12.15.15,0,0,0,0-.11.26.26,0,0,0-.11-.07h-.29l-.17.6a.28.28,0,0,0,0,.11,0,0,0,0,0,0,0,.28.28,0,0,0,.16,0,.87.87,0,0,0,.42-.1,1.07,1.07,0,0,0,.36-.29h.05l-.18.5H23.6l0,0a.3.3,0,0,0,.18-.05.49.49,0,0,0,.11-.23l.33-1.15a.64.64,0,0,0,0-.15.08.08,0,0,0,0-.08.37.37,0,0,0-.17,0v0h1.45l-.12.44h0a.6.6,0,0,0,0-.18.29.29,0,0,0-.15-.12.74.74,0,0,0-.3,0Zm2.38-.14L26.64,9.9a1,1,0,0,0-.05.17v0h0l.06,0a.61.61,0,0,0,.11-.14l.05,0c-.12.22-.26.33-.41.33a.16.16,0,0,1-.12,0,.14.14,0,0,1,0-.11.79.79,0,0,1,0-.17l0-.14a1.28,1.28,0,0,1-.29.39.27.27,0,0,1-.18.07.25.25,0,0,1-.17-.08.37.37,0,0,1-.06-.23,1,1,0,0,1,.08-.39,1.27,1.27,0,0,1,.21-.32.83.83,0,0,1,.22-.18A.42.42,0,0,1,26.36,9a.16.16,0,0,1,.09,0,.22.22,0,0,1,.09.08l.1-.33a.54.54,0,0,0,0-.18.08.08,0,0,0,0-.05.09.09,0,0,0-.07,0h-.06V8.51L27,8.43Zm-.59.83a.12.12,0,0,0,0-.11.08.08,0,0,0-.07,0,.12.12,0,0,0-.09,0,.91.91,0,0,0-.2.34,1.18,1.18,0,0,0-.11.43A.2.2,0,0,0,26,10l.05,0a.13.13,0,0,0,.1,0,1.1,1.1,0,0,0,.23-.34,1.15,1.15,0,0,0,.11-.4M27.83,9l-.28.9,0,.08s0,0,0,0h0a.23.23,0,0,0,.16-.11,1.74,1.74,0,0,0,.3-.45l.12-.4h.34l-.26.87a.63.63,0,0,0,0,.13v0h.06a1.16,1.16,0,0,0,.13-.15l0,0c-.12.21-.26.32-.4.32a.17.17,0,0,1-.13,0,.14.14,0,0,1-.05-.11.67.67,0,0,1,0-.18l.07-.22c-.11.16-.2.27-.25.33a.76.76,0,0,1-.2.18.28.28,0,0,1-.15,0,.17.17,0,0,1-.12,0,.15.15,0,0,1,0-.13.82.82,0,0,1,0-.18l.17-.53a.54.54,0,0,0,0-.17,0,0,0,0,0,0,0l0,0h-.08V9.11L27.75,9Zm1.83.91,0,0a1,1,0,0,1-.25.23.76.76,0,0,1-.35.09.46.46,0,0,1-.21,0,.32.32,0,0,1-.14-.14.43.43,0,0,1,0-.19.81.81,0,0,1,.12-.42.9.9,0,0,1,.31-.33A.65.65,0,0,1,29.52,9a.39.39,0,0,1,.23.07.2.2,0,0,1,.07.16.2.2,0,0,1-.06.15.16.16,0,0,1-.12.06.14.14,0,0,1-.11,0,.13.13,0,0,1,0-.09.15.15,0,0,1,.07-.12s.05-.05.05-.07a0,0,0,0,0,0,0l-.06,0a.29.29,0,0,0-.21.09.69.69,0,0,0-.2.3.91.91,0,0,0-.07.35.27.27,0,0,0,.07.2.2.2,0,0,0,.17.08.45.45,0,0,0,.18,0,.59.59,0,0,0,.19-.13m1.58-.89L31,9.93l0,.1v.06h0a.13.13,0,0,0,.07,0l.1-.12,0,0a.66.66,0,0,1-.2.25.4.4,0,0,1-.23.08.12.12,0,0,1-.11,0,.12.12,0,0,1,0-.1.77.77,0,0,1,0-.19l0-.1a1.35,1.35,0,0,1-.29.37.3.3,0,0,1-.18.06.17.17,0,0,1-.17-.1A.43.43,0,0,1,30,10a1.23,1.23,0,0,1,.42-.82A.48.48,0,0,1,30.7,9a.18.18,0,0,1,.12.05.23.23,0,0,1,.06.15l.05-.16Zm-.42.25a.21.21,0,0,0,0-.15.06.06,0,0,0-.06,0,.12.12,0,0,0-.09,0,.91.91,0,0,0-.19.33,1.1,1.1,0,0,0-.1.43.15.15,0,0,0,0,.1s0,0,.05,0a.19.19,0,0,0,.12-.07,1.11,1.11,0,0,0,.16-.24.91.91,0,0,0,.13-.44"/><path class="cls-1" d="M32.41,9.94l0,0a1,1,0,0,1-.25.23.73.73,0,0,1-.35.09.46.46,0,0,1-.21,0,.32.32,0,0,1-.14-.14.43.43,0,0,1,0-.19.81.81,0,0,1,.12-.42.9.9,0,0,1,.31-.33A.67.67,0,0,1,32.27,9a.37.37,0,0,1,.23.07.2.2,0,0,1,.07.16.2.2,0,0,1-.06.15.16.16,0,0,1-.12.06.15.15,0,0,1-.11,0,.13.13,0,0,1,0-.09.14.14,0,0,1,.08-.12s0-.05,0-.07l0,0-.07,0a.29.29,0,0,0-.21.09.69.69,0,0,0-.2.3.91.91,0,0,0-.07.35.27.27,0,0,0,.07.2.2.2,0,0,0,.17.08.42.42,0,0,0,.18,0,.59.59,0,0,0,.19-.13m.89-1.51a.19.19,0,0,1,.14.33.18.18,0,0,1-.14.06.18.18,0,0,1-.13-.06.19.19,0,0,1,0-.28.19.19,0,0,1,.13-.05m.11.6-.29.93a.27.27,0,0,0,0,.1s0,0,0,0a0,0,0,0,0,0,0l0,0a1.33,1.33,0,0,0,.14-.19l0,0c-.13.24-.27.36-.43.36a.19.19,0,0,1-.13,0,.14.14,0,0,1-.06-.12.35.35,0,0,1,0-.12l.2-.63a.5.5,0,0,0,0-.14s0,0,0-.05l-.07,0h0l0-.05L33.33,9Zm1,0a.46.46,0,0,1,.2.05.32.32,0,0,1,.14.14.37.37,0,0,1,0,.18.85.85,0,0,1-.12.43.93.93,0,0,1-.31.34.75.75,0,0,1-.4.12.38.38,0,0,1-.28-.11.38.38,0,0,1-.1-.26.81.81,0,0,1,.08-.34.92.92,0,0,1,.19-.28.83.83,0,0,1,.26-.19.61.61,0,0,1,.3-.08m0,.07a.21.21,0,0,0-.12,0,1.28,1.28,0,0,0-.21.39,1.52,1.52,0,0,0-.12.55.13.13,0,0,0,0,.1.1.1,0,0,0,.09,0,.16.16,0,0,0,.09,0,.57.57,0,0,0,.14-.21,2,2,0,0,0,.14-.37,1.23,1.23,0,0,0,.06-.36.18.18,0,0,0,0-.11.13.13,0,0,0-.07,0m.11-.68h.41l-.44.46h-.12ZM35.73,9l-.17.57c.12-.17.21-.28.26-.34A1,1,0,0,1,36,9.08.45.45,0,0,1,36.22,9a.14.14,0,0,1,.12.06.18.18,0,0,1,.06.14.74.74,0,0,1,0,.18l-.18.55a.84.84,0,0,0,0,.1v0h0a.45.45,0,0,0,.09-.1.21.21,0,0,1,0-.06l0,0c-.13.21-.27.32-.41.32a.17.17,0,0,1-.13,0,.14.14,0,0,1,0-.11.69.69,0,0,1,0-.16L36,9.4a.18.18,0,0,0,0-.09v0h0a.19.19,0,0,0-.13.07,1.7,1.7,0,0,0-.39.51l-.11.4H35l.25-.85a.54.54,0,0,0,0-.18,0,0,0,0,0,0,0l0,0h-.1V9.11L35.65,9Z"/><polygon class="cls-1" points="47.95 15.83 63 15.83 63 12.03 63 11.89 63 0.42 57.21 0.42 57.21 0.94 62.58 0.94 62.58 11.97 56.49 11.97 55.42 10.95 54.3 12.02 47.95 12.02 47.95 15.83"/><path class="cls-2" d="M.4,14.07H.13l.17-.52H.54Zm.4,0H.53l.17-.52H.94Z"/><path class="cls-2" d="M2.19,14a.39.39,0,0,1,0,.2A.28.28,0,0,1,2,14.3a.49.49,0,0,1-.18.08l-.2,0H1.49v.51H1.16V13.55h.5l.21,0a.29.29,0,0,1,.16.07.3.3,0,0,1,.12.13A.49.49,0,0,1,2.19,14Zm-.33,0a.14.14,0,0,0,0-.07.08.08,0,0,0-.05-.05l-.07,0H1.49v.32h.22a.11.11,0,0,0,.08,0l.05,0A.15.15,0,0,0,1.86,14Z"/><path class="cls-2" d="M3.8,14.23a.88.88,0,0,1,0,.29.63.63,0,0,1-.16.23.76.76,0,0,1-.23.15.94.94,0,0,1-.3,0,.93.93,0,0,1-.29,0,1,1,0,0,1-.24-.15.76.76,0,0,1-.15-.23.68.68,0,0,1-.06-.29.73.73,0,0,1,.06-.3.86.86,0,0,1,.15-.22.72.72,0,0,1,.24-.14.71.71,0,0,1,.29-.05.73.73,0,0,1,.3.05.59.59,0,0,1,.23.14.69.69,0,0,1,.16.22A.94.94,0,0,1,3.8,14.23Zm-.35,0a.47.47,0,0,0,0-.17.35.35,0,0,0-.08-.13.38.38,0,0,0-.12-.09.44.44,0,0,0-.32,0l-.12.09a.57.57,0,0,0-.08.13.5.5,0,0,0,0,.34.57.57,0,0,0,.08.13.47.47,0,0,0,.12.09.44.44,0,0,0,.32,0,.27.27,0,0,0,.12-.09.35.35,0,0,0,.08-.13A.47.47,0,0,0,3.45,14.23Z"/><path class="cls-2" d="M4.75,14.91l-.3-.54H4.34v.54H4V13.55h.52l.19,0a.59.59,0,0,1,.16.07.37.37,0,0,1,.12.13.39.39,0,0,1,0,.43.44.44,0,0,1-.21.13l.36.58Zm0-.94a.11.11,0,0,0,0-.08.1.1,0,0,0,0,0l-.07,0H4.34v.32h.24s0,0,.07,0,0,0,.06,0A.11.11,0,0,0,4.73,14Z"/><path class="cls-2" d="M5.77,14.91V13.55H6.1v1.08h.53v.28Z"/><path class="cls-2" d="M7.7,14.91l-.11-.26H7.07l-.1.26H6.61l.57-1.36H7.5l.56,1.36Zm-.36-1-.18.46H7.5Z"/><path class="cls-2" d="M8.62,14.91V13.55h.92v.28h-.6v.26H9.5v.26H8.94v.28h.63v.28Z"/><path class="cls-2" d="M11.06,14.23a.74.74,0,0,1-.07.31.6.6,0,0,1-.18.21.55.55,0,0,1-.24.12.86.86,0,0,1-.28,0h-.5V13.55h.49a1.35,1.35,0,0,1,.28,0,.64.64,0,0,1,.25.11.53.53,0,0,1,.18.21A.72.72,0,0,1,11.06,14.23Zm-.35,0a.5.5,0,0,0,0-.19.4.4,0,0,0-.1-.12l-.14-.07-.17,0h-.16v.8h.15l.17,0a.52.52,0,0,0,.15-.07.4.4,0,0,0,.1-.12A.54.54,0,0,0,10.71,14.23Z"/><path class="cls-2" d="M12.38,14.62a.44.44,0,0,1-.12.18.78.78,0,0,1-.18.11.74.74,0,0,1-.48,0,.68.68,0,0,1-.19-.11.54.54,0,0,1-.11-.18.51.51,0,0,1,0-.22v-.85h.33v.82a.37.37,0,0,0,0,.11.36.36,0,0,0,0,.09l.08.06a.37.37,0,0,0,.24,0l.08-.06a.36.36,0,0,0,0-.09.36.36,0,0,0,0-.11v-.82h.32v.85A.51.51,0,0,1,12.38,14.62Z"/><path class="cls-2" d="M13.66,14.89a.73.73,0,0,1-.3.06.84.84,0,0,1-.29,0,1,1,0,0,1-.24-.15.76.76,0,0,1-.15-.23.68.68,0,0,1,0-.29.65.65,0,0,1,0-.29.63.63,0,0,1,.16-.23.59.59,0,0,1,.23-.14.71.71,0,0,1,.29-.05.66.66,0,0,1,.28.05.46.46,0,0,1,.23.15l-.22.22a.27.27,0,0,0-.12-.09.42.42,0,0,0-.16,0,.37.37,0,0,0-.15,0,.57.57,0,0,0-.13.08.47.47,0,0,0-.08.14.41.41,0,0,0,0,.16.47.47,0,0,0,0,.17.41.41,0,0,0,.08.13.27.27,0,0,0,.12.09.41.41,0,0,0,.16,0,.47.47,0,0,0,.17,0,.4.4,0,0,0,.12-.1l.22.21A.62.62,0,0,1,13.66,14.89Z"/><path class="cls-2" d="M14.92,14.91l-.1-.26h-.53l-.1.26h-.36l.57-1.36h.32l.57,1.36Zm-.36-1-.18.46h.35Z"/><path class="cls-2" d="M16.34,14.89A.75.75,0,0,1,16,15a.93.93,0,0,1-.29,0,.91.91,0,0,1-.23-.15.61.61,0,0,1-.15-.23.68.68,0,0,1-.06-.29.65.65,0,0,1,.06-.29.76.76,0,0,1,.15-.23.72.72,0,0,1,.24-.14.68.68,0,0,1,.29-.05.69.69,0,0,1,.28.05.51.51,0,0,1,.23.15l-.23.22a.27.27,0,0,0-.12-.09.32.32,0,0,0-.31,0,.36.36,0,0,0-.12.08.32.32,0,0,0-.08.14.41.41,0,0,0,0,.16.47.47,0,0,0,0,.17.29.29,0,0,0,.08.13.27.27,0,0,0,.12.09.4.4,0,0,0,.15,0,.39.39,0,0,0,.17,0,.4.4,0,0,0,.12-.1l.23.21A.62.62,0,0,1,16.34,14.89Z"/><path class="cls-2" d="M16.7,14.91V13.55H17v1.36Z"/><path class="cls-2" d="M18.73,14.23a.68.68,0,0,1-.06.29.76.76,0,0,1-.15.23,1,1,0,0,1-.24.15A.93.93,0,0,1,18,15a.94.94,0,0,1-.3,0,.76.76,0,0,1-.23-.15.63.63,0,0,1-.16-.23.88.88,0,0,1-.05-.29.94.94,0,0,1,.05-.3.69.69,0,0,1,.16-.22.59.59,0,0,1,.23-.14.73.73,0,0,1,.3-.05.71.71,0,0,1,.29.05.72.72,0,0,1,.24.14.86.86,0,0,1,.15.22A.73.73,0,0,1,18.73,14.23Zm-.36,0a.47.47,0,0,0,0-.17.57.57,0,0,0-.08-.13.6.6,0,0,0-.13-.09.37.37,0,0,0-.15,0,.41.41,0,0,0-.16,0,.38.38,0,0,0-.12.09.26.26,0,0,0-.08.13.5.5,0,0,0,0,.34.35.35,0,0,0,.08.13.27.27,0,0,0,.12.09.41.41,0,0,0,.16,0,.37.37,0,0,0,.15,0,.38.38,0,0,0,.13-.09.57.57,0,0,0,.08-.13A.47.47,0,0,0,18.37,14.23Zm-.32-.78h-.24l.2-.28h.32Z"/><path class="cls-2" d="M19.81,14.91,19.26,14h0v.89h-.32V13.55h.38l.54.89h0v-.89h.32v1.36Z"/><path class="cls-2" d="M21.82,14.91l-.1-.26h-.53l-.1.26h-.35l.57-1.36h.31l.57,1.36Zm-.36-1-.17.46h.34Z"/><path class="cls-2" d="M22.3,14.91V13.55h.33v1.08h.53v.28Z"/><path class="cls-2" d="M24.46,13.91a.24.24,0,0,0-.11-.09.31.31,0,0,0-.13,0h-.07l-.06,0s0,0,0,0a.14.14,0,0,0,0,.07A.43.43,0,0,0,24,14a.1.1,0,0,0,.05,0l.06,0,.09,0,.14.05a.37.37,0,0,1,.14.07.52.52,0,0,1,.1.11.33.33,0,0,1,0,.17.46.46,0,0,1,0,.21.53.53,0,0,1-.12.14l-.16.08a.69.69,0,0,1-.2,0,.87.87,0,0,1-.28,0,.76.76,0,0,1-.23-.15l.22-.22a.37.37,0,0,0,.29.15h.07s.05,0,.06,0a.08.08,0,0,0,0,0,.13.13,0,0,0,0-.14l0-.05-.09,0-.12,0-.13-.05-.11-.08a.44.44,0,0,1-.08-.11.33.33,0,0,1,0-.15.42.42,0,0,1,.05-.2.37.37,0,0,1,.12-.13.45.45,0,0,1,.17-.08l.19,0a.66.66,0,0,1,.23,0,.57.57,0,0,1,.21.13Z"/><path class="cls-2" d="M24.88,14.91V13.55h.91v.28H25.2v.26h.56v.26H25.2v.28h.63v.28Z"/><path class="cls-2" d="M26.77,14.91l-.29-.54h-.12v.54H26V13.55h.52l.19,0,.17.07a.37.37,0,0,1,.12.13.46.46,0,0,1,0,.43.44.44,0,0,1-.21.13l.35.58Zm0-.94a.19.19,0,0,0,0-.08.13.13,0,0,0-.06,0l-.07,0h-.25v.32h.24l.08,0a.08.08,0,0,0,.05,0A.11.11,0,0,0,26.76,14Z"/><path class="cls-2" d="M28,14.91h-.33l-.52-1.36h.37l.32,1h0l.32-1h.36Z"/><path class="cls-2" d="M28.6,14.91V13.55h.33v1.36Z"/><path class="cls-2" d="M30.18,14.89a.73.73,0,0,1-.3.06.88.88,0,0,1-.29,0,.76.76,0,0,1-.23-.15.63.63,0,0,1-.16-.23.88.88,0,0,1-.05-.29.84.84,0,0,1,.05-.29.63.63,0,0,1,.16-.23.68.68,0,0,1,.23-.14.71.71,0,0,1,.29-.05.74.74,0,0,1,.29.05.48.48,0,0,1,.22.15l-.22.22a.27.27,0,0,0-.12-.09.42.42,0,0,0-.15,0,.38.38,0,0,0-.16,0,.57.57,0,0,0-.13.08.47.47,0,0,0-.08.14.41.41,0,0,0,0,.16.47.47,0,0,0,0,.17.41.41,0,0,0,.08.13.47.47,0,0,0,.12.09.41.41,0,0,0,.16,0,.47.47,0,0,0,.17,0,.4.4,0,0,0,.12-.1l.23.21A.66.66,0,0,1,30.18,14.89Z"/><path class="cls-2" d="M30.55,14.91V13.55h.33v1.36Z"/><path class="cls-2" d="M32.57,14.23a.88.88,0,0,1,0,.29.63.63,0,0,1-.16.23.76.76,0,0,1-.23.15.94.94,0,0,1-.3,0,.93.93,0,0,1-.29,0,1,1,0,0,1-.24-.15.76.76,0,0,1-.15-.23.68.68,0,0,1-.06-.29.73.73,0,0,1,.06-.3.86.86,0,0,1,.15-.22.72.72,0,0,1,.24-.14.71.71,0,0,1,.29-.05.73.73,0,0,1,.3.05.59.59,0,0,1,.23.14.69.69,0,0,1,.16.22A.94.94,0,0,1,32.57,14.23Zm-.35,0a.47.47,0,0,0,0-.17.35.35,0,0,0-.08-.13.38.38,0,0,0-.12-.09.44.44,0,0,0-.32,0l-.12.09a.57.57,0,0,0-.08.13.5.5,0,0,0,0,.34.57.57,0,0,0,.08.13.47.47,0,0,0,.12.09.44.44,0,0,0,.32,0,.27.27,0,0,0,.12-.09.35.35,0,0,0,.08-.13A.47.47,0,0,0,32.22,14.23Z"/><path class="cls-2" d="M34.54,14.23a.74.74,0,0,1-.07.31.68.68,0,0,1-.17.21.64.64,0,0,1-.25.12.86.86,0,0,1-.28,0h-.5V13.55h.49a1.35,1.35,0,0,1,.28,0,.64.64,0,0,1,.25.11.53.53,0,0,1,.18.21A.72.72,0,0,1,34.54,14.23Zm-.35,0a.5.5,0,0,0,0-.19.4.4,0,0,0-.1-.12l-.14-.07-.17,0h-.16v.8h.15l.17,0a.52.52,0,0,0,.15-.07.4.4,0,0,0,.1-.12A.54.54,0,0,0,34.19,14.23Z"/><path class="cls-2" d="M34.75,14.91V13.55h.92v.28h-.6v.26h.56v.26h-.56v.28h.63v.28Z"/><path class="cls-2" d="M35.92,14.91V13.55h.33v1.08h.52v.28Z"/><path class="cls-2" d="M38.39,14a.4.4,0,0,1,0,.2.3.3,0,0,1-.12.13.49.49,0,0,1-.18.08l-.2,0h-.16v.51h-.33V13.55h.5l.21,0a.37.37,0,0,1,.28.2A.36.36,0,0,1,38.39,14Zm-.33,0a.08.08,0,0,0,0-.07.08.08,0,0,0,0-.05l-.07,0h-.23v.32h.22a.11.11,0,0,0,.08,0,.12.12,0,0,0,0,0S38.06,14,38.06,14Z"/><path class="cls-2" d="M39.7,14.62a.57.57,0,0,1-.12.18.68.68,0,0,1-.19.11.74.74,0,0,1-.48,0,.78.78,0,0,1-.18-.11.57.57,0,0,1-.12-.18.72.72,0,0,1,0-.22v-.85h.33v.82a.36.36,0,0,0,0,.11.18.18,0,0,0,0,.09l.08.06a.22.22,0,0,0,.12,0,.2.2,0,0,0,.11,0l.08-.06a.41.41,0,0,0,0-.09.37.37,0,0,0,0-.11v-.82h.33v.85A.51.51,0,0,1,39.7,14.62Z"/><path class="cls-2" d="M40,14.91V13.55h.92v.28h-.6v.26h.56v.26h-.56v.28H41v.28Z"/><path class="cls-2" d="M42.23,14.52a.35.35,0,0,1,0,.18.47.47,0,0,1-.11.13.49.49,0,0,1-.17.06.62.62,0,0,1-.19,0h-.54V13.55h.54l.16,0a.34.34,0,0,1,.15.06.35.35,0,0,1,.11.1.31.31,0,0,1,0,.17.29.29,0,0,1-.06.19.38.38,0,0,1-.16.11h0l.11,0a.47.47,0,0,1,.09.06l.06.1A.37.37,0,0,1,42.23,14.52ZM41.86,14a.1.1,0,0,0-.06-.1.27.27,0,0,0-.15,0h-.17v.29h.18a.26.26,0,0,0,.14,0A.13.13,0,0,0,41.86,14Zm0,.54a.12.12,0,0,0-.06-.12.43.43,0,0,0-.17,0h-.19v.31h.27l.07,0s0,0,.06,0A.19.19,0,0,0,41.9,14.49Z"/><path class="cls-2" d="M42.44,14.91V13.55h.33v1.08h.53v.28Z"/><path class="cls-2" d="M44.81,14.23a.88.88,0,0,1-.05.29.63.63,0,0,1-.16.23.76.76,0,0,1-.23.15.94.94,0,0,1-.3,0,.88.88,0,0,1-.29,0,1,1,0,0,1-.24-.15.76.76,0,0,1-.15-.23.68.68,0,0,1-.06-.29.73.73,0,0,1,.06-.3.86.86,0,0,1,.15-.22.72.72,0,0,1,.24-.14.68.68,0,0,1,.29-.05.73.73,0,0,1,.3.05.59.59,0,0,1,.23.14.69.69,0,0,1,.16.22A.94.94,0,0,1,44.81,14.23Zm-.35,0a.47.47,0,0,0,0-.17.35.35,0,0,0-.08-.13.38.38,0,0,0-.12-.09.44.44,0,0,0-.32,0l-.12.09a.57.57,0,0,0-.08.13.5.5,0,0,0,0,.34.57.57,0,0,0,.08.13.47.47,0,0,0,.12.09.44.44,0,0,0,.32,0,.27.27,0,0,0,.12-.09.35.35,0,0,0,.08-.13A.47.47,0,0,0,44.46,14.23Z"/><path class="cls-2" d="M45.21,14.07H45l.14-.52h.27Zm.4,0h-.25l.15-.52h.27Z"/><path class="cls-3" d="M51.75,13.69a.27.27,0,0,0-.12-.09.25.25,0,0,0-.14,0h-.07l-.06,0a.12.12,0,0,0,0,.05.14.14,0,0,0,0,.07.13.13,0,0,0,0,.06.1.1,0,0,0,.05,0l.07,0,.09,0,.16,0,.14.08a.6.6,0,0,1,.11.12.36.36,0,0,1,0,.19.46.46,0,0,1,0,.21.37.37,0,0,1-.13.15.51.51,0,0,1-.18.09.64.64,0,0,1-.2,0,.94.94,0,0,1-.3-.05.72.72,0,0,1-.25-.16l.23-.23.14.11a.39.39,0,0,0,.18,0h.07l.07,0,0-.05a.19.19,0,0,0,0-.08.19.19,0,0,0,0-.07l-.06,0-.09,0-.13,0-.14-.06a.42.42,0,0,1-.12-.08A.44.44,0,0,1,51,13.9a.47.47,0,0,1,0-.17.36.36,0,0,1,.05-.21.41.41,0,0,1,.12-.14.71.71,0,0,1,.18-.08.76.76,0,0,1,.21,0,.79.79,0,0,1,.25.05.61.61,0,0,1,.22.13Z"/><path class="cls-3" d="M52.2,14.76V13.31h1v.3h-.64v.27h.61v.28h-.61v.3h.68v.3Z"/><path class="cls-3" d="M54.48,14.74a.84.84,0,0,1-.33.06,1.06,1.06,0,0,1-.31-.05.78.78,0,0,1-.24-.16.81.81,0,0,1-.17-.24.83.83,0,0,1-.06-.32.78.78,0,0,1,.06-.31.61.61,0,0,1,.17-.24.58.58,0,0,1,.25-.15.81.81,0,0,1,.31-.06.8.8,0,0,1,.3.06.51.51,0,0,1,.24.16l-.24.23a.29.29,0,0,0-.12-.1.51.51,0,0,0-.17,0,.47.47,0,0,0-.17,0l-.13.1a.34.34,0,0,0-.09.14.47.47,0,0,0,0,.17.58.58,0,0,0,0,.19.42.42,0,0,0,.09.14.6.6,0,0,0,.13.09.47.47,0,0,0,.17,0,.37.37,0,0,0,.18,0,.32.32,0,0,0,.12-.11l.25.23A.84.84,0,0,1,54.48,14.74Z"/><path class="cls-3" d="M55.91,14.74a.88.88,0,0,1-.33.06,1,1,0,0,1-.31-.05.72.72,0,0,1-.25-.16.78.78,0,0,1-.16-.24A.83.83,0,0,1,54.8,14a.78.78,0,0,1,.06-.31.61.61,0,0,1,.17-.24.58.58,0,0,1,.25-.15.78.78,0,0,1,.31-.06.8.8,0,0,1,.3.06.51.51,0,0,1,.24.16l-.24.23a.27.27,0,0,0-.13-.1.45.45,0,0,0-.16,0,.47.47,0,0,0-.17,0,.45.45,0,0,0-.13.1.34.34,0,0,0-.09.14.47.47,0,0,0,0,.17.58.58,0,0,0,0,.19.42.42,0,0,0,.09.14.43.43,0,0,0,.13.09.41.41,0,0,0,.16,0,.34.34,0,0,0,.18,0,.28.28,0,0,0,.13-.11l.24.23A.68.68,0,0,1,55.91,14.74Z"/><path class="cls-3" d="M56.29,14.76V13.31h.36v1.45Z"/><path class="cls-3" d="M58.46,14a.83.83,0,0,1-.06.32.81.81,0,0,1-.17.24.72.72,0,0,1-.25.16,1,1,0,0,1-.31.05,1.07,1.07,0,0,1-.32-.05.82.82,0,0,1-.25-.16.78.78,0,0,1-.16-.24.83.83,0,0,1-.06-.32.75.75,0,0,1,.06-.31.6.6,0,0,1,.16-.24.64.64,0,0,1,.25-.15.83.83,0,0,1,.32-.06.78.78,0,0,1,.31.06.58.58,0,0,1,.25.15.61.61,0,0,1,.17.24A.75.75,0,0,1,58.46,14Zm-.38,0a.57.57,0,0,0,0-.18.64.64,0,0,0-.08-.14.38.38,0,0,0-.13-.09.5.5,0,0,0-.34,0,.3.3,0,0,0-.13.09.42.42,0,0,0-.09.14.57.57,0,0,0,0,.18.48.48,0,0,0,0,.18.28.28,0,0,0,.09.14.41.41,0,0,0,.13.1.47.47,0,0,0,.17,0,.51.51,0,0,0,.17,0,.41.41,0,0,0,.13-.1.37.37,0,0,0,.08-.14A.48.48,0,0,0,58.08,14Zm-.34-.83h-.26l.22-.3H58Z"/><path class="cls-3" d="M59.61,14.76,59,13.81h0v.95h-.34V13.31h.4l.58.95h0v-.95H60v1.45Z"/><text class="cls-4" transform="translate(48.69 10.56)">56</text><text class="cls-5" transform="translate(50.03 18.25)">VER<tspan class="cls-6" x="3.91" y="0">A</tspan><tspan x="5.34" y="0">CRUZ</tspan></text></g></g></svg>